PathFileType	4	(X/Y/Z)	Patient4_TMGait_0pt7_01_right_07.trc.trc
DataRate	CameraRate	NumFrames	NumMarkers	Units	OrigDataRate	OrigDataStartFrame	OrigNumFrames
89.171974522293	89.171974522293	5	33	mm	89.171974522293	124	       141
Frame#	Time	Sacral			L.Shoulder			Chest			R.Shoulder			Neck			R.ASIS			L.ASIS			R.Thigh.Superior			R.Thigh.Lateral			R.Thigh.Inferior			R.Patella			L.Thigh.Superior			L.Thigh.Lateral			L.Thigh.Inferior			L.Patella			L.Shank.Superior			L.Shank.Lateral			L.Shank.Inferior			R.Shank.Superior			R.Shank.Lateral			R.Shank.Inferior			R.Heel			R.Midfoot.Superior			R.Midfoot.Lateral			R.Toe			L.Heel			L.Midfoot.Lateral			L.Midfoot.Superior			L.Toe			L.Elbow			L.Wrist			R.Elbow			R.Wrist			
		X1	Y1	Z1	X2	Y2	Z2	X3	Y3	Z3	X4	Y4	Z4	X5	Y5	Z5	X6	Y6	Z6	X7	Y7	Z7	X8	Y8	Z8	X9	Y9	Z9	X10	Y10	Z10	X11	Y11	Z11	X12	Y12	Z12	X13	Y13	Z13	X14	Y14	Z14	X15	Y15	Z15	X16	Y16	Z16	X17	Y17	Z17	X18	Y18	Z18	X19	Y19	Z19	X20	Y20	Z20	X21	Y21	Z21	X22	Y22	Z22	X23	Y23	Z23	X24	Y24	Z24	X25	Y25	Z25	X26	Y26	Z26	X27	Y27	Z27	X28	Y28	Z28	X29	Y29	Z29	X30	Y30	Z30	X31	Y31	Z31	X32	Y32	Z32	X33	Y33	Z33	

124	8.909357142857	750.427437193271	984.389617299944	454.017117635517	931.875692730252	1405.951344838701	260.416777310214	1029.331891653541	1340.433858869249	427.122605788203	944.429218954348	1426.182378687492	594.979538888695	936.315775311970	1474.543112415302	412.994442104626	975.036764333605	925.204837377224	576.260697442181	966.716118453509	949.088931814677	300.169299630312	1052.022751426435	754.593525004003	552.224172335848	1004.257535643940	629.780093419720	620.240274482045	1096.946341147132	596.816291489190	544.294482668309	1126.609362104858	514.318775347755	557.022024803457	967.330558227012	722.990172136379	328.061923903900	847.822577286419	631.163190939741	264.054047434379	902.764648686863	535.669878591175	329.451817841359	884.180862475011	468.062133661164	339.237935429813	848.848943306295	402.797501724489	329.925591727138	742.341722203135	303.238824371100	278.974131523133	775.375931867045	186.473816729272	352.144580320518	1115.435156062946	423.231023893969	567.862178179857	1063.933982501334	308.553444820742	629.523759614786	1134.493126425474	224.473749185749	578.148315696047	1043.010592167065	41.596605480571	553.271599468125	1207.356118061934	112.746023572099	587.760172717806	1128.676068402348	40.195661864103	624.161271522601	1331.610813622306	73.863694093040	611.426127416658	630.605398118233	38.780118420502	395.062458604465	703.566960292957	34.954808977791	313.701428445782	788.017135625013	95.037080551338	339.744653930925	915.218063159312	42.714431046560	309.428912862458	996.289447646634	1082.865828144925	110.859763447412	1246.914850030449	1023.849356307700	127.904115597745	792.834868467936	1129.625011932853	732.132481169058	744.714708880612	873.438240081622	760.387790187313	
125	8.920571428571	752.095347242815	982.742753487526	456.850089571615	931.841840800079	1405.029256787912	263.223790184888	1030.006559206556	1339.673593563936	429.584315756888	945.227751633937	1425.065707836284	597.756232474442	936.775057602673	1473.526294829372	415.845378977496	977.348318573988	924.002863768930	578.290429881303	967.782083661434	947.848964302189	302.405868235180	1054.657094704563	752.510688695783	553.526582902217	1004.835682072220	627.702268039828	619.858622796291	1097.671283983564	594.889593044553	544.186201168786	1125.834425204296	511.268030681207	555.923318028364	968.546810588942	721.585211268232	329.396276089066	848.267835563724	630.006660884105	266.166580412295	903.490975616740	534.047519085955	330.864383570785	884.579607686303	465.670270745416	340.619790418531	847.633059307412	400.989961259596	331.284957420565	738.987641568211	303.757792461422	280.269452573364	769.674496586518	185.973656914091	352.652094861358	1113.580506067221	419.940132596858	566.592633899053	1060.354004998898	305.714956751519	627.694542295378	1129.227373547345	220.799654548547	575.878830476249	1033.559418356290	40.998923056606	550.985780156119	1199.701414238853	108.049478224577	584.768057450986	1119.142652458715	38.356513800869	622.055414905168	1323.222609437399	65.973922550221	608.717635210211	622.773193049199	39.737159797318	394.917345447693	695.823769239076	35.343336469678	313.747147264058	780.690624630563	95.076092718066	339.745425468789	907.543720627927	41.937324870691	309.357090571652	994.266478804482	1081.487927446035	113.462550006158	1246.397808834690	1033.017844668588	132.259407668614	790.350896323528	1130.580559809322	734.184687500784	739.027064308473	874.884851693853	760.973078486890	
126	8.931785714286	753.649780625033	981.579459914790	459.730059656327	932.051320450714	1404.446310456817	266.083416675801	1030.854639474115	1339.196895983858	432.117268041688	946.260198626548	1424.282114074961	600.595396005907	937.472944602735	1472.869523816385	418.766188983438	979.602927008718	923.260331506353	580.365421249088	968.652998812669	946.867142058090	304.747249182513	1057.153320235869	750.921276423040	554.866546992121	1005.550718115495	626.312298290762	619.886702735152	1098.319900778700	593.476561215158	544.287434839042	1125.122680992076	508.806558521620	555.162739544691	969.855801650676	720.513961953094	330.731748424486	848.913908349743	628.995558418486	268.451596788726	904.823977667265	532.601829677166	332.229742230791	885.765824242768	463.309870066317	341.806598333122	846.914909163343	399.312703276448	332.579273290942	735.919339368742	304.676737927513	281.657529374746	764.244285871250	185.783144631778	353.048803429324	1111.809105846342	417.296974487078	565.707672162242	1057.133544911905	303.627421990105	626.675386399265	1124.081314236816	217.800910521392	574.186273113555	1024.252883791702	40.778268335573	549.506029689167	1192.027975601742	104.209280535079	582.474984651523	1109.804646005832	37.102096775836	620.705317548706	1314.896044104496	59.299572710242	606.629914869435	615.009499851715	41.315778036638	394.728486143449	688.125346788174	36.013246806277	313.771116948597	773.569846261914	95.210732125455	339.614743276538	899.875912012605	41.148763433812	309.255219363566	991.795135654166	1080.096746684224	116.417177868627	1244.949773960374	1041.279447786470	136.692480296070	788.639680259014	1131.444625722791	736.204609357684	734.845979681247	876.051072446415	761.515105049033	
127	8.943000000000	755.045316728005	980.969163631014	462.641654311496	932.518874329683	1404.271704626915	268.965302072073	1031.863099470743	1339.042548631717	434.692278905785	947.520730484813	1423.880658932276	603.462677963055	938.416740592886	1472.622455735090	421.726296689739	981.728719090002	923.038446101208	582.507627954505	969.304954536957	946.213705728711	307.198710201763	1059.392919341478	749.904326122229	556.236480506176	1006.396091639723	625.659275801392	620.388415719312	1098.811540829257	592.592776953112	544.619803350107	1124.389819013023	506.984106936952	554.822692376627	971.258021122902	719.844481856144	332.127662759203	849.860080644261	628.159252374009	270.872956977621	906.861053035109	531.390109635631	333.550484363878	887.849545581989	461.043915596267	342.747905839628	846.800602430984	397.819557511030	333.764993636336	733.261936099302	306.068617713034	283.092775559513	759.189894359019	185.982352423192	353.308560476745	1110.062538552891	415.339619695944	565.254629045087	1054.238784854375	302.304040273974	626.475926808697	1119.075599964573	215.531395460700	573.081601333743	1015.303986121405	40.834892429580	548.740713268602	1184.442718511205	101.323145356239	580.894702772344	1100.861275843619	36.369074683249	620.024434636488	1306.768735660920	54.114974091002	605.178953095162	607.380418598521	43.699308506717	394.493945141666	680.503999819806	37.068272107690	313.766662397030	766.724301537564	95.465817563180	339.331194503673	892.210362317862	40.380094647116	309.133209869389	988.848957693514	1078.773300110601	119.723715514170	1242.641950805667	1048.502058955830	141.170428652593	787.796423820002	1132.180332354149	738.185679099506	732.214968352674	876.906498033391	762.035894943774	
128	8.954214285714	756.254271426386	980.944382262425	465.585759115637	933.234123582218	1404.546199757573	271.841726076410	1033.006084739923	1339.229656380276	437.278462856233	948.987573762630	1423.891105625194	606.323166603059	939.590680292142	1472.806479719588	424.691664147697	983.670458766751	923.357439438642	584.744836436570	969.737787536439	945.943259895479	309.763176525885	1061.280726985153	749.479486271955	557.642613648075	1007.304550091221	625.707740152562	621.372783959444	1099.057790504585	592.188545124843	545.203473185568	1123.506373522904	505.764198502727	554.951029189198	972.779646266514	719.624147112454	333.631478502067	851.234318467477	627.508986024649	273.379992402964	909.717289077540	530.456332600705	334.819887465828	890.944904016883	458.930562981670	343.397638248348	847.423409029431	396.550614607324	334.796983660234	731.175266758101	307.989517246438	284.521873169001	754.637224180505	186.644197672438	353.409597084052	1108.221648830997	414.022951704864	565.245147899786	1051.511129354660	301.670103254245	627.007118749785	1114.139937926592	213.957411836963	572.527392161448	1006.788138046862	41.063069656387	548.549195427638	1176.965549725826	99.365747105445	579.971078794112	1092.372594878905	36.052150356078	619.881125736596	1298.875188300934	50.477194875252	604.319958941736	599.980333635310	47.072094489676	394.214834237377	673.011527345081	38.628801431288	313.729785298844	760.236355079046	95.874311925856	338.881941241172	884.548272723912	39.659695484578	309.005802980149	985.407566964824	1077.598991139595	123.373651454352	1239.549539391465	1054.570942163897	145.666202192708	787.888310496170	1132.756603958984	740.133559244435	731.198367947370	877.428287059362	762.536931392698	
